<svg width="205" height="205" viewBox="0 0 205 205" fill="none" xmlns="http://www.w3.org/2000/svg">
<path d="M102.5 205C159.109 205 205 159.109 205 102.5C205 45.8908 159.109 0 102.5 0C45.8908 0 0 45.8908 0 102.5C0 159.109 45.8908 205 102.5 205Z" fill="#2165E5" fill-opacity="0.05"/>
<path d="M115.12 61.1C115.43 61.0962 115.727 60.9746 115.95 60.76C116.17 60.5399 116.294 60.2413 116.294 59.93C116.294 59.6187 116.17 59.3202 115.95 59.1C115.73 58.8799 115.431 58.7562 115.12 58.7562C114.809 58.7562 114.51 58.8799 114.29 59.1C114.125 59.2637 114.013 59.4726 113.967 59.7003C113.922 59.928 113.945 60.164 114.034 60.3785C114.123 60.593 114.274 60.7761 114.467 60.9046C114.661 61.0331 114.888 61.1011 115.12 61.1Z" fill="#2165E5"/>
<path d="M100 59.55C99.7808 59.332 99.4842 59.2096 99.175 59.2096C98.8658 59.2096 98.5692 59.332 98.35 59.55C98.2393 59.6581 98.1514 59.7871 98.0913 59.9297C98.0313 60.0722 98.0004 60.2253 98.0004 60.38C98.0004 60.5347 98.0313 60.6878 98.0913 60.8303C98.1514 60.9729 98.2393 61.1019 98.35 61.21C98.5692 61.428 98.8658 61.5504 99.175 61.5504C99.4842 61.5504 99.7808 61.428 100 61.21C100.111 61.1019 100.199 60.9729 100.259 60.8303C100.319 60.6878 100.35 60.5347 100.35 60.38C100.35 60.2253 100.319 60.0722 100.259 59.9297C100.199 59.7871 100.111 59.6581 100 59.55Z" fill="#2165E5"/>
<path d="M95.06 57.45C95.3721 57.4477 95.6705 57.3218 95.89 57.1C96.0004 56.9928 96.0881 56.8646 96.148 56.7229C96.208 56.5812 96.2388 56.4289 96.2388 56.275C96.2388 56.1212 96.208 55.9689 96.148 55.8271C96.0881 55.6854 96.0004 55.5572 95.89 55.45C95.6705 55.2282 95.3721 55.1023 95.06 55.1C94.7671 55.1271 94.4948 55.2625 94.2966 55.4799C94.0984 55.6973 93.9885 55.9808 93.9885 56.275C93.9885 56.5692 94.0984 56.8527 94.2966 57.0701C94.4948 57.2875 94.7671 57.423 95.06 57.45Z" fill="#2165E5"/>
<path d="M127 64.52H123.73L129.49 58.76C129.821 58.4334 130.085 58.0442 130.264 57.6151C130.444 57.1859 130.536 56.7253 130.536 56.26C130.536 55.7948 130.444 55.3341 130.264 54.905C130.085 54.4758 129.821 54.0866 129.49 53.76L124.27 48.54C124.161 48.4306 124.032 48.3437 123.889 48.2844C123.747 48.2251 123.594 48.1946 123.44 48.1946C123.286 48.1946 123.133 48.2251 122.99 48.2844C122.848 48.3437 122.719 48.4306 122.61 48.54C121.947 49.2031 121.048 49.5755 120.11 49.5755C119.172 49.5755 118.273 49.2031 117.61 48.54C116.947 47.877 116.574 46.9777 116.574 46.04C116.574 45.1023 116.947 44.2031 117.61 43.54C117.829 43.3191 117.951 43.0208 117.951 42.71C117.951 42.3992 117.829 42.1009 117.61 41.88L112.39 36.66C112.063 36.3286 111.674 36.0655 111.245 35.8859C110.816 35.7063 110.355 35.6138 109.89 35.6138C109.425 35.6138 108.964 35.7063 108.535 35.8859C108.106 36.0655 107.717 36.3286 107.39 36.66L88.07 56.07C87.8538 56.2922 87.7328 56.59 87.7328 56.9C87.7328 57.21 87.8538 57.5078 88.07 57.73C88.1787 57.8395 88.3081 57.9263 88.4505 57.9856C88.5929 58.0449 88.7457 58.0754 88.9 58.0754C89.0543 58.0754 89.207 58.0449 89.3495 57.9856C89.4919 57.9263 89.6213 57.8395 89.73 57.73L109.09 38.38C109.197 38.2696 109.325 38.1819 109.467 38.122C109.609 38.0621 109.761 38.0312 109.915 38.0312C110.069 38.0312 110.221 38.0621 110.363 38.122C110.505 38.1819 110.633 38.2696 110.74 38.38L115.22 42.85C114.457 43.9762 114.11 45.3326 114.238 46.6867C114.366 48.0408 114.961 49.3083 115.921 50.2718C116.881 51.2353 118.146 51.8349 119.5 51.9678C120.853 52.1006 122.211 51.7585 123.34 51L127.81 55.48C127.919 55.5879 128.006 55.7164 128.065 55.858C128.124 55.9996 128.155 56.1515 128.155 56.305C128.155 56.4585 128.124 56.6104 128.065 56.752C128.006 56.8937 127.919 57.0221 127.81 57.13L120.4 64.55H115.26L119.11 60.7C119.219 60.5913 119.306 60.462 119.366 60.3195C119.425 60.1771 119.455 60.0243 119.455 59.87C119.455 59.7157 119.425 59.563 119.366 59.4205C119.306 59.2781 119.219 59.1488 119.11 59.04L107.18 47.08C107.071 46.9706 106.942 46.8837 106.799 46.8244C106.657 46.7651 106.504 46.7346 106.35 46.7346C106.196 46.7346 106.043 46.7651 105.901 46.8244C105.758 46.8837 105.629 46.9706 105.52 47.08L88.08 64.52H74C73.0768 64.5252 72.1926 64.8929 71.5379 65.5438C70.8832 66.1948 70.5105 67.0769 70.5 68V75.39C70.5 75.5437 70.5303 75.6958 70.5891 75.8377C70.6479 75.9797 70.734 76.1087 70.8427 76.2173C70.9513 76.326 71.0803 76.4122 71.2223 76.471C71.3642 76.5298 71.5163 76.56 71.67 76.56C72.1611 76.5074 72.6577 76.5588 73.1276 76.7107C73.5975 76.8627 74.0302 77.1118 74.3975 77.4419C74.7648 77.772 75.0586 78.1757 75.2597 78.6267C75.4608 79.0778 75.5647 79.5661 75.5647 80.06C75.5647 80.5539 75.4608 81.0422 75.2597 81.4933C75.0586 81.9443 74.7648 82.3481 74.3975 82.6782C74.0302 83.0083 73.5975 83.2574 73.1276 83.4093C72.6577 83.5612 72.1611 83.6126 71.67 83.56C71.3597 83.56 71.0621 83.6833 70.8427 83.9027C70.6233 84.1221 70.5 84.4197 70.5 84.73V92.11C70.4934 92.5753 70.5788 93.0372 70.7514 93.4693C70.9239 93.9014 71.1802 94.2952 71.5055 94.6279C71.8308 94.9606 72.2186 95.2257 72.6467 95.408C73.0748 95.5903 73.5347 95.6861 74 95.69H127C127.933 95.6874 128.827 95.3157 129.486 94.6561C130.146 93.9966 130.517 93.1028 130.52 92.17V84.79C130.52 84.4797 130.397 84.1821 130.177 83.9627C129.958 83.7433 129.66 83.62 129.35 83.62C128.859 83.6726 128.362 83.6212 127.892 83.4693C127.422 83.3174 126.99 83.0683 126.622 82.7382C126.255 82.4081 125.961 82.0043 125.76 81.5533C125.559 81.1022 125.455 80.6139 125.455 80.12C125.455 79.6262 125.559 79.1378 125.76 78.6867C125.961 78.2357 126.255 77.832 126.622 77.5019C126.99 77.1718 127.422 76.9227 127.892 76.7707C128.362 76.6188 128.859 76.5674 129.35 76.62C129.66 76.62 129.958 76.4967 130.177 76.2773C130.397 76.0579 130.52 75.7603 130.52 75.45V68C130.509 67.0734 130.134 66.1883 129.475 65.5368C128.816 64.8853 127.927 64.52 127 64.52ZM106.37 49.52L116.65 59.8L112 64.52H107.36L110.79 61.08C110.899 60.9717 110.986 60.8429 111.045 60.7011C111.104 60.5593 111.135 60.4072 111.135 60.2535C111.136 60.0999 111.106 59.9476 111.048 59.8054C110.989 59.6633 110.903 59.534 110.795 59.425C110.687 59.316 110.558 59.2294 110.416 59.1702C110.274 59.1109 110.122 59.0802 109.969 59.0798C109.815 59.0793 109.663 59.1091 109.52 59.1675C109.378 59.2259 109.249 59.3117 109.14 59.42L104.04 64.52H91.4L106.37 49.52ZM128.18 74.32C126.853 74.5869 125.659 75.3049 124.802 76.3522C123.944 77.3995 123.475 78.7114 123.475 80.065C123.475 81.4187 123.944 82.7305 124.802 83.7778C125.659 84.8251 126.853 85.5432 128.18 85.81V92.13C128.185 92.2883 128.159 92.4461 128.102 92.5939C128.045 92.7417 127.959 92.8765 127.849 92.9904C127.739 93.1042 127.607 93.1947 127.461 93.2565C127.315 93.3183 127.158 93.3501 127 93.35H74C73.687 93.35 73.3869 93.2257 73.1656 93.0044C72.9443 92.7831 72.82 92.483 72.82 92.17V85.85C74.1471 85.5832 75.3408 84.8651 76.1985 83.8178C77.0561 82.7705 77.5248 81.4587 77.5248 80.105C77.5248 78.7514 77.0561 77.4395 76.1985 76.3922C75.3408 75.3449 74.1471 74.6269 72.82 74.36V68C72.8304 67.694 72.9593 67.4041 73.1794 67.1914C73.3996 66.9786 73.6939 66.8598 74 66.86H127C127.303 66.865 127.592 66.9861 127.808 67.1982C128.024 67.4104 128.15 67.6975 128.16 68L128.18 74.32Z" fill="#2165E5"/>
<path d="M107.13 78.12C107.325 77.9281 107.446 77.6746 107.475 77.4028C107.503 77.131 107.436 76.8577 107.286 76.6297C107.135 76.4016 106.91 76.2329 106.649 76.1524C106.388 76.0719 106.107 76.0845 105.854 76.1881C105.601 76.2917 105.392 76.4798 105.262 76.7204C105.133 76.961 105.091 77.2392 105.143 77.5073C105.196 77.7755 105.34 78.0171 105.551 78.1908C105.762 78.3646 106.027 78.4597 106.3 78.46C106.454 78.4607 106.606 78.431 106.749 78.3727C106.891 78.3144 107.021 78.2285 107.13 78.12Z" fill="#2165E5"/>
<path d="M95.53 78.12C95.7245 77.9281 95.8464 77.6746 95.8749 77.4028C95.9033 77.131 95.8365 76.8577 95.6859 76.6297C95.5353 76.4016 95.3102 76.2329 95.049 76.1524C94.7879 76.0719 94.5069 76.0845 94.254 76.1881C94.0011 76.2917 93.792 76.4798 93.6624 76.7204C93.5328 76.961 93.4907 77.2392 93.5434 77.5073C93.596 77.7755 93.7401 78.0171 93.9511 78.1908C94.162 78.3646 94.4267 78.4597 94.7 78.46C94.8539 78.4607 95.0064 78.431 95.1489 78.3727C95.2913 78.3144 95.4208 78.2285 95.53 78.12Z" fill="#2165E5"/>
<path d="M101.33 78.12C101.525 77.9281 101.646 77.6746 101.675 77.4028C101.703 77.131 101.636 76.8577 101.486 76.6297C101.335 76.4016 101.11 76.2329 100.849 76.1524C100.588 76.0719 100.307 76.0845 100.054 76.1881C99.8011 76.2917 99.592 76.4798 99.4624 76.7204C99.3328 76.961 99.2907 77.2392 99.3434 77.5073C99.396 77.7755 99.5401 78.0171 99.7511 78.1908C99.962 78.3646 100.227 78.4597 100.5 78.46C100.654 78.4607 100.806 78.431 100.949 78.3727C101.091 78.3144 101.221 78.2285 101.33 78.12Z" fill="#2165E5"/>
<path d="M112.1 78.46C112.292 78.4591 112.481 78.411 112.65 78.3199C112.819 78.2287 112.963 78.0974 113.069 77.9375C113.175 77.7775 113.241 77.5939 113.259 77.4028C113.278 77.2117 113.249 77.0189 113.175 76.8416C113.102 76.6642 112.986 76.5077 112.837 76.3858C112.689 76.264 112.513 76.1805 112.324 76.1428C112.136 76.1051 111.941 76.1143 111.758 76.1696C111.574 76.225 111.406 76.3247 111.27 76.46C111.051 76.6809 110.929 76.9792 110.929 77.29C110.929 77.6008 111.051 77.8991 111.27 78.12C111.379 78.2285 111.509 78.3144 111.651 78.3727C111.794 78.4311 111.946 78.4607 112.1 78.46Z" fill="#2165E5"/>
<path d="M89.73 78.12C89.9486 77.8991 90.0713 77.6008 90.0713 77.29C90.0713 76.9792 89.9486 76.6809 89.73 76.46C89.5661 76.2971 89.3576 76.1865 89.1308 76.1419C88.9041 76.0974 88.6692 76.121 88.4559 76.2098C88.2425 76.2986 88.0603 76.4485 87.932 76.6408C87.8038 76.833 87.7354 77.0589 87.7354 77.29C87.7354 77.5211 87.8038 77.747 87.932 77.9392C88.0603 78.1315 88.2425 78.2814 88.4559 78.3702C88.6692 78.459 88.9041 78.4826 89.1308 78.4381C89.3576 78.3935 89.5661 78.2829 89.73 78.12Z" fill="#2165E5"/>
<path d="M88.9 84.09H112.1C112.393 84.063 112.665 83.9275 112.863 83.7101C113.062 83.4928 113.171 83.2092 113.171 82.915C113.171 82.6209 113.062 82.3373 112.863 82.1199C112.665 81.9026 112.393 81.7671 112.1 81.74H88.9C88.6071 81.7671 88.3348 81.9026 88.1366 82.1199C87.9384 82.3373 87.8285 82.6209 87.8285 82.915C87.8285 83.2092 87.9384 83.4928 88.1366 83.7101C88.3348 83.9275 88.6071 84.063 88.9 84.09Z" fill="#2165E5"/>
<path d="M107.85 87.37C107.54 87.37 107.242 87.4933 107.023 87.7127C106.803 87.9321 106.68 88.2297 106.68 88.54C106.68 88.8503 106.803 89.1479 107.023 89.3673C107.242 89.5868 107.54 89.71 107.85 89.71C108.003 89.7116 108.154 89.6824 108.295 89.6239C108.436 89.5655 108.563 89.4791 108.67 89.37C108.781 89.262 108.869 89.1329 108.929 88.9903C108.989 88.8478 109.02 88.6947 109.02 88.54C109.02 88.3854 108.989 88.2322 108.929 88.0897C108.869 87.9472 108.781 87.8181 108.67 87.71C108.563 87.6009 108.436 87.5146 108.295 87.4561C108.154 87.3977 108.003 87.3684 107.85 87.37Z" fill="#2165E5"/>
<path d="M118.31 70.49H82.69C82.5355 70.49 82.3825 70.5206 82.2399 70.58C82.0973 70.6394 81.9679 70.7265 81.8591 70.8362C81.7504 70.9459 81.6644 71.0761 81.6062 71.2192C81.548 71.3623 81.5187 71.5155 81.52 71.67V88.54C81.52 88.8503 81.6433 89.1479 81.8627 89.3673C82.0821 89.5867 82.3797 89.71 82.69 89.71H87.57C87.8803 89.71 88.1779 89.5867 88.3973 89.3673C88.6167 89.1479 88.74 88.8503 88.74 88.54C88.74 88.2297 88.6167 87.9321 88.3973 87.7127C88.1779 87.4933 87.8803 87.37 87.57 87.37H83.86V72.84H117.14V87.37H98.14C97.8297 87.37 97.5321 87.4933 97.3127 87.7127C97.0933 87.9321 96.97 88.2297 96.97 88.54C96.97 88.8503 97.0933 89.1479 97.3127 89.3673C97.5321 89.5867 97.8297 89.71 98.14 89.71H118.33C118.64 89.71 118.938 89.5867 119.157 89.3673C119.377 89.1479 119.5 88.8503 119.5 88.54V71.67C119.501 71.5138 119.471 71.3589 119.412 71.2145C119.353 71.0701 119.265 70.939 119.154 70.829C119.043 70.7191 118.911 70.6324 118.766 70.5742C118.621 70.5159 118.466 70.4873 118.31 70.49Z" fill="#2165E5"/>
<path d="M62.06 151H66.416V140.704H76.568V136.672H66.416V129.868H77.288V125.8H62.06V151ZM81.9584 151H86.3144V141.46H89.3384L94.7384 151H99.9944L93.6944 140.884C97.1144 139.84 98.9504 136.996 98.9504 133.468C98.9504 128.896 95.5664 125.8 90.3464 125.8H81.9584V151ZM86.3144 137.536V129.832H90.2024C93.0824 129.832 94.4864 131.488 94.4864 133.54C94.4864 136.132 92.7224 137.536 90.3824 137.536H86.3144ZM104.142 151H119.73V146.932H108.498V140.2H117.858V136.168H108.498V129.868H119.37V125.8H104.142V151ZM124.427 151H140.015V146.932H128.783V140.2H138.143V136.168H128.783V129.868H139.655V125.8H124.427V151Z" fill="#2163E5"/>
</svg>
