<svg width="205" height="205" viewBox="0 0 205 205" fill="none" xmlns="http://www.w3.org/2000/svg">
<path d="M102.5 205C159.109 205 205 159.109 205 102.5C205 45.8908 159.109 0 102.5 0C45.8908 0 0 45.8908 0 102.5C0 159.109 45.8908 205 102.5 205Z" fill="#825034" fill-opacity="0.12"/>
<path d="M96.9711 58.1056H95.0585V60.0115H96.9711V58.1056Z" fill="#825034"/>
<path d="M96.9711 61.924H95.0585V63.8632H96.9711V61.924Z" fill="#825034"/>
<path d="M96.9711 65.7425H95.0585V67.655H96.9711V65.7425Z" fill="#825034"/>
<path d="M96.9711 69.5676H95.0585V71.4735H96.9711V69.5676Z" fill="#825034"/>
<path d="M100.79 58.1056H98.877V60.0115H100.79V58.1056Z" fill="#825034"/>
<path d="M100.79 61.924H98.877V63.8632H100.79V61.924Z" fill="#825034"/>
<path d="M100.79 65.7425H98.877V67.655H100.79V65.7425Z" fill="#825034"/>
<path d="M100.79 69.5676H98.877V71.4735H100.79V69.5676Z" fill="#825034"/>
<path d="M104.608 58.1056H102.702V60.0115H104.608V58.1056Z" fill="#825034"/>
<path d="M104.608 61.924H102.702V63.8632H104.608V61.924Z" fill="#825034"/>
<path d="M104.608 65.7425H102.702V67.655H104.608V65.7425Z" fill="#825034"/>
<path d="M104.608 69.5676H102.702V71.4735H104.608V69.5676Z" fill="#825034"/>
<path d="M108.433 58.1056H106.521V60.0115H108.433V58.1056Z" fill="#825034"/>
<path d="M100.79 54.2805H98.877V56.193H100.79V54.2805Z" fill="#825034"/>
<path d="M104.608 54.2805H102.702V56.193H104.608V54.2805Z" fill="#825034"/>
<path d="M108.433 54.2805H106.521V56.193H108.433V54.2805Z" fill="#825034"/>
<path d="M108.433 61.924H106.521V63.8632H108.433V61.924Z" fill="#825034"/>
<path d="M108.433 65.7425H106.521V67.655H108.433V65.7425Z" fill="#825034"/>
<path d="M108.433 69.5676H106.521V71.4735H108.433V69.5676Z" fill="#825034"/>
<path d="M112.252 58.1056H110.339V60.0115H112.252V58.1056Z" fill="#825034"/>
<path d="M112.252 61.924H110.339V63.8632H112.252V61.924Z" fill="#825034"/>
<path d="M112.252 65.7425H110.339V67.655H112.252V65.7425Z" fill="#825034"/>
<path d="M112.252 69.5676H110.339V71.4735H112.252V69.5676Z" fill="#825034"/>
<path d="M131.357 53.3275H117.03V39.953C117.03 39.8273 117.005 39.7028 116.956 39.5867C116.908 39.4707 116.837 39.3653 116.748 39.2768C116.659 39.1882 116.553 39.1181 116.437 39.0706C116.32 39.0231 116.196 38.9991 116.07 39H91.2401C90.9867 39 90.7436 39.1002 90.5639 39.2787C90.3841 39.4572 90.2822 39.6996 90.2804 39.953V53.3275H75.9529C75.8278 53.3275 75.7039 53.3522 75.5883 53.4001C75.4726 53.448 75.3676 53.5181 75.2791 53.6066C75.1906 53.6951 75.1204 53.8002 75.0725 53.9158C75.0246 54.0314 75 54.1553 75 54.2805V88.6665C75 88.9198 75.1002 89.1629 75.2787 89.3427C75.4572 89.5224 75.6996 89.6243 75.9529 89.6261H77.9521C77.8966 89.9407 77.8676 90.2595 77.8655 90.579V95.3571C77.8655 95.6098 77.9659 95.8522 78.1446 96.0309C78.3233 96.2096 78.5657 96.31 78.8184 96.31H128.492C128.744 96.31 128.987 96.2096 129.165 96.0309C129.344 95.8522 129.444 95.6098 129.444 95.3571V90.579C129.442 90.2595 129.413 89.9407 129.358 89.6261H131.357C131.483 89.6261 131.607 89.6012 131.723 89.5529C131.839 89.5046 131.945 89.4338 132.033 89.3446C132.122 89.2554 132.192 89.1496 132.239 89.0332C132.287 88.9168 132.311 88.7922 132.31 88.6665V54.2805C132.31 54.1553 132.285 54.0314 132.237 53.9158C132.19 53.8002 132.119 53.6951 132.031 53.6066C131.942 53.5181 131.837 53.448 131.722 53.4001C131.606 53.3522 131.482 53.3275 131.357 53.3275ZM116.07 80.07C116.071 80.4488 115.96 80.8195 115.75 81.135C115.541 81.4506 115.242 81.6967 114.892 81.8423C114.543 81.9879 114.158 82.0263 113.786 81.9528C113.414 81.8792 113.073 81.6969 112.805 81.429C112.537 81.1611 112.355 80.8197 112.281 80.4481C112.208 80.0765 112.246 79.6914 112.392 79.3416C112.537 78.9919 112.783 78.6933 113.099 78.4836C113.415 78.274 113.785 78.1628 114.164 78.1641C114.67 78.1641 115.154 78.3649 115.512 78.7223C115.869 79.0797 116.07 79.5645 116.07 80.07ZM93.1459 78.1641C93.5248 78.1628 93.8955 78.274 94.211 78.4836C94.5265 78.6933 94.7727 78.9919 94.9183 79.3416C95.0639 79.6914 95.1023 80.0765 95.0287 80.4481C94.9551 80.8197 94.7729 81.1611 94.505 81.429C94.2371 81.6969 93.8957 81.8792 93.5241 81.9528C93.1525 82.0263 92.7674 81.9879 92.4176 81.8423C92.0679 81.6967 91.7692 81.4506 91.5596 81.135C91.35 80.8195 91.2387 80.4488 91.2401 80.07C91.2401 79.8197 91.2894 79.5718 91.3851 79.3406C91.4809 79.1094 91.6213 78.8993 91.7983 78.7223C91.9753 78.5453 92.1854 78.4049 92.4166 78.3092C92.6478 78.2134 92.8957 78.1641 93.1459 78.1641ZM87.4149 94.3975H79.7781V90.579C79.7781 89.5663 80.1804 88.5951 80.8965 87.879C81.6126 87.1629 82.5838 86.7606 83.5965 86.7606C84.6092 86.7606 85.5805 87.1629 86.2965 87.879C87.0126 88.5951 87.4149 89.5663 87.4149 90.579V94.3975ZM81.6839 82.9355C81.6839 82.5572 81.7961 82.1874 82.0063 81.8729C82.2164 81.5584 82.5151 81.3133 82.8646 81.1685C83.2141 81.0237 83.5986 80.9859 83.9696 81.0597C84.3406 81.1335 84.6814 81.3156 84.9489 81.5831C85.2164 81.8506 85.3985 82.1913 85.4723 82.5623C85.5461 82.9333 85.5082 83.3179 85.3635 83.6674C85.2187 84.0168 84.9736 84.3155 84.6591 84.5257C84.3445 84.7359 83.9748 84.848 83.5965 84.848C83.0893 84.848 82.6028 84.6465 82.2441 84.2879C81.8854 83.9292 81.6839 83.4427 81.6839 82.9355ZM87.5616 86.454C87.202 86.1058 86.7988 85.8056 86.362 85.5611C86.8796 85.0194 87.2267 84.3378 87.3603 83.6007C87.4939 82.8635 87.4081 82.1034 87.1136 81.4146C86.819 80.7258 86.3287 80.1386 85.7035 79.726C85.0783 79.3134 84.3456 79.0934 83.5965 79.0934C82.8474 79.0934 82.1147 79.3134 81.4895 79.726C80.8643 80.1386 80.374 80.7258 80.0794 81.4146C79.7849 82.1034 79.6991 82.8635 79.8327 83.6007C79.9663 84.3378 80.3134 85.0194 80.831 85.5611C79.9301 86.0727 79.1823 86.8158 78.6652 87.7135H76.9126V55.2401H90.2804V77.571C89.6494 78.2815 89.3098 79.2041 89.3295 80.1542C89.3493 81.1043 89.727 82.0119 90.3871 82.6956C89.6784 83.0883 89.0605 83.626 88.5737 84.2736C88.0868 84.9212 87.7419 85.6642 87.5616 86.454ZM96.9711 94.3975H89.3275V87.7335C89.3687 86.7475 89.7893 85.8156 90.5016 85.1325C91.2138 84.4494 92.1624 84.068 93.1493 84.068C94.1361 84.068 95.0848 84.4494 95.797 85.1325C96.5092 85.8156 96.9299 86.7475 96.9711 87.7335V94.3975ZM108.433 94.3975H98.8769V87.7335C98.8769 86.4663 99.3803 85.251 100.276 84.3549C101.172 83.4589 102.388 82.9555 103.655 82.9555C104.922 82.9555 106.138 83.4589 107.034 84.3549C107.93 85.251 108.433 86.4663 108.433 87.7335V94.3975ZM100.789 78.1641C100.789 77.5973 100.958 77.0433 101.272 76.5721C101.587 76.1009 102.035 75.7336 102.558 75.5167C103.082 75.2998 103.658 75.2431 104.214 75.3536C104.77 75.4642 105.28 75.7371 105.681 76.1379C106.082 76.5386 106.355 77.0492 106.465 77.605C106.576 78.1609 106.519 78.7371 106.302 79.2607C106.085 79.7843 105.718 80.2318 105.247 80.5467C104.776 80.8615 104.222 81.0296 103.655 81.0296C102.895 81.0296 102.166 80.7277 101.629 80.1903C101.091 79.6529 100.789 78.9241 100.789 78.1641ZM109.453 84.4282C108.816 83.2944 107.864 82.3688 106.714 81.7626C107.438 81.1542 107.964 80.3446 108.228 79.4365C108.491 78.5284 108.479 77.5626 108.194 76.6613C107.908 75.7599 107.361 74.9636 106.623 74.3732C105.884 73.7828 104.987 73.4248 104.045 73.3445C103.103 73.2642 102.158 73.4652 101.33 73.9221C100.502 74.379 99.8287 75.0713 99.3945 75.9113C98.9604 76.7512 98.7852 77.7011 98.8911 78.6407C98.9971 79.5803 99.3795 80.4674 99.9898 81.1895C100.164 81.3968 100.356 81.5886 100.563 81.7626C99.4123 82.3688 98.4612 83.2944 97.824 84.4282C97.3212 83.7126 96.6627 83.1203 95.8982 82.6956C96.4829 82.1001 96.8549 81.3284 96.9564 80.5C97.058 79.6716 96.8833 78.8329 96.4597 78.1138C96.036 77.3948 95.3869 76.8356 94.6131 76.523C93.8393 76.2104 92.9839 76.1618 92.1797 76.3848V40.9126H115.104V76.3848C114.793 76.3009 114.473 76.2561 114.151 76.2515C113.402 76.2467 112.669 76.4628 112.043 76.8727C111.416 77.2826 110.925 77.8681 110.63 78.5559C110.335 79.2437 110.249 80.0033 110.383 80.7397C110.518 81.476 110.866 82.1563 111.385 82.6956C110.625 83.1219 109.972 83.7141 109.473 84.4282H109.453ZM117.983 90.579V94.3975H110.339V87.7335C110.38 86.7475 110.801 85.8156 111.513 85.1325C112.225 84.4494 113.174 84.068 114.161 84.068C115.148 84.068 116.096 84.4494 116.808 85.1325C117.521 85.8156 117.941 86.7475 117.983 87.7335V90.579ZM127.532 94.3975H119.895V90.579C119.895 89.5663 120.297 88.5951 121.013 87.879C121.73 87.1629 122.701 86.7606 123.714 86.7606C124.726 86.7606 125.697 87.1629 126.414 87.879C127.13 88.5951 127.532 89.5663 127.532 90.579V94.3975ZM121.801 82.9355C121.801 82.5572 121.913 82.1874 122.123 81.8729C122.333 81.5584 122.632 81.3133 122.982 81.1685C123.331 81.0237 123.716 80.9859 124.087 81.0597C124.458 81.1335 124.798 81.3156 125.066 81.5831C125.333 81.8506 125.516 82.1913 125.589 82.5623C125.663 82.9333 125.625 83.3179 125.48 83.6674C125.336 84.0168 125.091 84.3155 124.776 84.5257C124.462 84.7359 124.092 84.848 123.714 84.848C123.462 84.848 123.214 84.7986 122.982 84.7024C122.75 84.6063 122.539 84.4655 122.361 84.2879C122.184 84.1103 122.043 83.8994 121.947 83.6674C121.85 83.4353 121.801 83.1866 121.801 82.9355ZM130.397 87.7135H128.645C128.12 86.8123 127.363 86.0689 126.452 85.5611C126.97 85.0194 127.317 84.3378 127.451 83.6007C127.584 82.8635 127.498 82.1034 127.204 81.4146C126.909 80.7258 126.419 80.1386 125.794 79.726C125.169 79.3134 124.436 79.0934 123.687 79.0934C122.938 79.0934 122.205 79.3134 121.58 79.726C120.955 80.1386 120.464 80.7258 120.17 81.4146C119.875 82.1034 119.789 82.8635 119.923 83.6007C120.057 84.3378 120.404 85.0194 120.921 85.5611C120.485 85.8056 120.081 86.1058 119.722 86.454C119.541 85.6642 119.197 84.9212 118.71 84.2736C118.223 83.626 117.605 83.0883 116.896 82.6956C117.558 82.0127 117.936 81.1048 117.956 80.1542C117.976 79.2037 117.635 78.2808 117.003 77.571V55.2401H130.371V87.7135H130.397Z" fill="#825034"/>
<path d="M121.801 60.9711H119.895V76.2515H121.801V60.9711Z" fill="#825034"/>
<path d="M127.532 60.9711H125.626V76.2515H127.532V60.9711Z" fill="#825034"/>
<path d="M81.6839 60.9711H79.778V76.2515H81.6839V60.9711Z" fill="#825034"/>
<path d="M87.4149 60.9711H85.509V76.2515H87.4149V60.9711Z" fill="#825034"/>
<path d="M109.386 42.8185H97.924C97.7983 42.8185 97.6738 42.8433 97.5578 42.8917C97.4417 42.94 97.3364 43.0107 97.2478 43.0999C97.1592 43.1891 97.0892 43.295 97.0417 43.4114C96.9942 43.5278 96.9702 43.6524 96.9711 43.7781V51.415C96.9711 51.6683 97.0712 51.9114 97.2498 52.0912C97.4283 52.271 97.6707 52.3728 97.924 52.3746H109.386C109.512 52.3746 109.636 52.3497 109.752 52.3014C109.868 52.2531 109.974 52.1823 110.062 52.0931C110.151 52.0039 110.221 51.8981 110.268 51.7817C110.316 51.6653 110.34 51.5407 110.339 51.415V43.7781C110.339 43.5247 110.239 43.2817 110.06 43.1019C109.882 42.9221 109.639 42.8202 109.386 42.8185ZM108.433 50.462H98.877V44.731H108.433V50.462Z" fill="#825034"/>
<path d="M31.168 147H35.04V128.216H41.248V124.6H24.96V128.216H31.168V147ZM50.4028 147.416C53.3148 147.416 54.7868 145.912 55.4268 144.888H55.7148C55.8428 145.976 56.6108 147 58.1147 147H60.9628V143.8H60.2268C59.7148 143.8 59.4588 143.512 59.4588 143.064V130.232H55.6828V132.28H55.3948C54.6588 131.256 53.1228 129.816 50.3068 129.816C45.8268 129.816 42.4988 133.528 42.4988 138.616C42.4988 143.704 45.8908 147.416 50.4028 147.416ZM51.0748 143.768C48.4188 143.768 46.3388 141.816 46.3388 138.648C46.3388 135.544 48.3548 133.432 51.0428 133.432C53.6028 133.432 55.7468 135.32 55.7468 138.648C55.7468 141.496 53.9228 143.768 51.0748 143.768ZM63.6938 147H73.7418V143.672H70.6058V123H63.6938V126.36H66.8298V143.672H63.6938V147ZM77.4313 147H81.2073V139.672H83.2552L87.5753 147H92.0873L86.4873 137.976V137.688L91.7673 130.232H87.2873L83.1913 136.216H81.2073V123H77.4313V147ZM110.315 147H113.259V143.64H110.347C109.195 143.64 108.715 143.128 108.715 141.944V133.56H113.451V130.232H108.715V125.528H105.131V130.232H101.995V133.56H104.907V141.976C104.907 145.528 107.051 147 110.315 147ZM125.018 147.416C130.17 147.416 133.882 143.608 133.882 138.616C133.882 133.624 130.202 129.816 125.05 129.816C119.898 129.816 116.186 133.624 116.186 138.616C116.186 143.64 119.866 147.416 125.018 147.416ZM125.018 143.832C122.106 143.832 120.026 141.656 120.026 138.616C120.026 135.64 122.074 133.4 125.018 133.4C127.962 133.4 130.042 135.64 130.042 138.616C130.042 141.624 127.962 143.832 125.018 143.832ZM151.885 147.416C154.125 147.416 155.661 146.36 156.397 145.08H156.685V147H160.461V130.232H156.685V140.024C156.685 142.136 155.117 143.736 153.037 143.736C151.117 143.736 149.645 142.296 149.645 140.216V130.232H145.869V141.208C145.869 144.664 148.205 147.416 151.885 147.416ZM170.971 147.416C175.099 147.416 177.723 145.176 177.723 141.88C177.723 135.128 168.379 138.072 168.379 134.936C168.379 133.944 169.339 133.24 170.939 133.24C172.539 133.24 173.627 133.912 173.947 135.384L177.307 134.456C176.699 131.448 174.171 129.816 170.939 129.816C167.131 129.816 164.763 132.024 164.763 134.872C164.763 141.688 173.851 138.84 173.851 142.232C173.851 143.352 172.891 144.024 171.067 144.024C169.307 144.024 168.091 143.192 167.739 141.432L164.155 142.232C164.603 145.656 167.323 147.416 170.971 147.416Z" fill="#825034"/>
</svg>
